<?xml version="1.0" encoding="utf-8"?>
<!-- Generator: Adobe Illustrator 22.0.1, SVG Export Plug-In . SVG Version: 6.00 Build 0)  -->
<svg version="1.1" id="Layer_1" xmlns="http://www.w3.org/2000/svg" xmlns:xlink="http://www.w3.org/1999/xlink" x="0px" y="0px"
	 viewBox="0 0 150 100" style="enable-background:new 0 0 150 100;" xml:space="preserve">
<path d="M139.4,42.1c0-0.3,0-0.6,0-0.9c0-8.8-7.2-16-16-16c-2.7,0-5.4,0.7-7.7,2c-1.8-8.4-9.4-14.5-18.4-14.5l-1,0
	c-8,0.4-14.4,5.5-16.9,12.5c-4.5-4.6-10.9-7.4-18-7.1c-11.3,0.6-20.2,8.8-21.7,19.3c-2-0.7-4.1-1-6.2-1c-10.7,0-19.5,8.7-19.5,19.5
	c0,0.2,0,0.4,0,0.6C8.7,57.8,1,61,1,72.1c0,8.8,7.8,16,17.4,16l0.9,0c6-0.3,30.7,0,30.7,0l0-0.4c0,0,0.1,0,0.1,0l0,0.4l0-0.4
	c3.3,0.4,10.9,0.5,28.6,0.5c0,0,13.3,0.2,23,0.2c3.6,0,6.8,0,8.5-0.1c9.1-0.5,16.6-9.1,16.3-18.5c0,0,0,0,0,0c0.6,0,1.2,0,1.7,0
	c3,0,5.6,0,7-0.1c3.8-0.2,7.3-2,9.9-5.1c2.4-2.9,3.7-6.7,3.6-10.3C148.6,48.6,144.8,43.9,139.4,42.1z M122,69.7
	c0.3,6.2-4.7,13.4-11.8,13.8c-6.3,0.3-31.2-0.1-31.2-0.1c-11,0-27.8-0.1-28.7-0.1l-0.1,1.1l0-1.1c0,0-11.4-0.1-20.7-0.1
	c-4.4,0-8.4,0-10.3,0.1l-0.7,0c-7,0-12.7-5-12.7-11.2c0-7.4,4-9.8,11.5-11.6l1.8-0.7l0.1-1.8L19,57c-0.1-0.4-0.1-0.9-0.1-1.3
	c0-8.1,6.6-14.7,14.7-14.7c2.4,0,4.8,0.7,7.1,1.9l3.6,2l-0.1-4.1c-0.2-9.6,7.5-17.6,17.4-18.1l1,0c4.6,0,8.9,1.7,12.1,4.5
	c1.9,1.6,3.4,3.5,4.5,5.8c1,2,1.6,4.3,1.7,6.6c0,0.3,0,0.7,0,1.5l-0.2,6.1l4.3-4.4c2.8-2.8,6.5-4.4,10.5-4.4
	c8.1,0,14.7,6.6,14.7,14.7c0,1-0.1,2-0.3,2.9l-0.5,2.4l2.4,0.4c3.9,0.7,7,3,8.7,6C121.4,66.4,121.9,68,122,69.7
	C122,69.7,122,69.7,122,69.7z M141.7,61.4c-1.7,2.1-4,3.3-6.5,3.4c-1.8,0.1-5.4,0.1-9.4,0.1c-1.7-4.8-5.7-8.6-10.9-10.2
	c0-0.5,0.1-1.1,0.1-1.6c0-10.7-8.7-19.5-19.5-19.5c-3.6,0-7.1,1-10.1,2.8c-0.3-1.8-0.9-3.5-1.6-5.1c-0.2-0.4-0.4-0.7-0.6-1.1
	c0.4-7,6-12.6,13.4-13l0.7,0c7.5,0,13.7,5.7,14.1,13c0,0.3,0,0.5,0,1.2l-0.2,6.2l4.3-4.4c2.1-2.2,5-3.4,8-3.4
	c6.2,0,11.3,5.1,11.3,11.3c0,0.8-0.1,1.5-0.2,2.3l-0.5,2.4l2.4,0.4c4.4,0.8,7.5,4.1,7.7,8.2C144.2,56.8,143.3,59.4,141.7,61.4z"/>
</svg>
