<?xml version="1.0" encoding="utf-8"?>
<!-- Generator: Adobe Illustrator 22.0.1, SVG Export Plug-In . SVG Version: 6.00 Build 0)  -->
<svg version="1.1" id="Layer_1" xmlns="http://www.w3.org/2000/svg" xmlns:xlink="http://www.w3.org/1999/xlink" x="0px" y="0px"
	 viewBox="0 0 150 100" style="enable-background:new 0 0 150 100;" xml:space="preserve">
<g>
	<path d="M79.8,91.2c-4.4-5.9-4.1-16.1-4.3-12.8c-0.6,8.5-3.9,12.8-3.9,12.8c-0.3,0.5-0.4,1.1-0.4,1.7c0,2.2,2,4.1,4.6,4.1
		c2.5,0,4.6-1.8,4.6-4.1C80.2,92.3,80,91.7,79.8,91.2L79.8,91.2z"/>
	<path d="M102.9,15.8c-7.3,0-13.2,5.9-13.2,13.2c0,2.5,0.7,4.8,1.9,6.8c-1-0.2-2-0.3-3-0.3c-2.7,0-5.3,0.7-7.5,2.1
		c-1.4-8.1-8.8-14.2-17.6-13.7c-8.3,0.4-14.9,6.5-16,14.3c-1.5-0.5-3.1-0.8-4.6-0.8c-7.9,0-14.3,6.4-14.3,14.3c0,0.2,0,0.3,0,0.5
		c-4,1.1-9.7,3.4-9.7,11.6c0,6.1,5,11.3,11.9,11.6l2.1-3.2c-0.2,0-0.5,0-0.7,0l-0.5,0c-5.2,0-9.5-3.8-9.5-8.4c0-5.5,3-7.3,8.6-8.7
		l1.3-0.5l0-1.3L32,52.6c0-0.3-0.1-0.6-0.1-1c0-6.1,4.9-11,11-11c1.8,0,3.6,0.5,5.3,1.4l2.5,1.4l0-2.9c-0.1-7.2,5.6-13.1,12.9-13.5
		l0.7,0c7.3,0,13.2,5.5,13.6,12.5c0,0.3,0,0.5,0,1.1l-0.1,4.3l3-3.1c2.1-2.1,4.9-3.3,7.8-3.3c6,0,11,4.9,11,11
		c0,0.8-0.1,1.5-0.2,2.2L99,53.6l1.7,0.3c4.3,0.7,7.4,4.1,7.6,8.1c0.2,4-2.6,8.6-6.8,9.9l1.1,3.1c5.3-1.8,9.3-7.2,9-13.2
		c-0.3-5-3.8-9.3-8.8-10.8c0-0.4,0.1-0.8,0.1-1.3c0-2.9-0.9-5.5-2.3-7.8c0.8,0.1,1.5,0.2,2.3,0.2c7.3,0,13.2-5.9,13.2-13.2
		C116.1,21.7,110.2,15.8,102.9,15.8z M102.9,39.9C96.9,39.9,92,35,92,29c0-6,4.9-10.9,10.9-10.9c6,0,10.9,4.9,10.9,10.9
		C113.8,35,108.9,39.9,102.9,39.9z"/>
	<path d="M91.2,18.7c0.3,0.4,0.9,0.4,1.3,0.1c0.4-0.3,0.4-0.9,0.1-1.3l-6.8-7.8c-0.3-0.4-0.9-0.4-1.3-0.1c-0.4,0.3-0.4,0.9-0.1,1.3
		L91.2,18.7z"/>
	<path d="M102.9,14.2c0.5,0,0.9-0.4,0.9-0.9l-0.1-10.4c0-0.5-0.4-0.9-0.9-0.9c-0.5,0-0.9,0.4-0.9,0.9l0.1,10.4
		C102,13.8,102.4,14.2,102.9,14.2z"/>
	<path d="M76.7,27.5L87,28.3c0.5,0,1-0.3,1-0.8c0-0.5-0.3-0.9-0.8-1l-10.3-0.8c-0.5,0-0.9,0.3-1,0.8C75.8,27,76.2,27.4,76.7,27.5z"
		/>
	<path d="M126.5,41.5l-9.2-4.8c-0.4-0.2-1-0.1-1.2,0.4c-0.2,0.5-0.1,1,0.4,1.2l9.2,4.8c0.4,0.2,1,0.1,1.2-0.4
		C127.2,42.3,127,41.7,126.5,41.5z"/>
	<path d="M128.7,24l-10.3,1.2c-0.5,0.1-0.9,0.5-0.8,1c0.1,0.5,0.5,0.9,1,0.8l10.3-1.2c0.5-0.1,0.9-0.5,0.8-1
		C129.7,24.3,129.2,24,128.7,24z"/>
	<path d="M107.2,42.6c-0.5,0.2-0.7,0.7-0.6,1.2l3.4,9.8c0.2,0.5,0.7,0.7,1.2,0.6c0.5-0.2,0.7-0.7,0.6-1.2l-3.4-9.8
		C108.2,42.7,107.7,42.4,107.2,42.6z"/>
	<path d="M113.5,17.8l6.4-8.2c0.3-0.4,0.2-1-0.2-1.3c-0.4-0.3-1-0.2-1.3,0.2l-6.4,8.2c-0.3,0.4-0.2,1,0.2,1.3
		C112.7,18.2,113.2,18.2,113.5,17.8z"/>
	<path d="M48.7,88.3c-5.5-7.4-5.1-20.1-5.4-16c-0.7,10.6-4.9,16-4.9,16c-0.3,0.7-0.6,1.4-0.6,2.2c0,2.8,2.6,5.1,5.7,5.1
		c3.1,0,5.7-2.3,5.7-5.1C49.2,89.7,49,88.9,48.7,88.3L48.7,88.3z"/>
	<path d="M66.2,78.2c-4.8-6.5-4.5-17.6-4.7-14c-0.6,9.3-4.3,14-4.3,14c-0.3,0.6-0.5,1.2-0.5,1.9c0,2.5,2.2,4.5,5,4.5
		c2.7,0,5-2,5-4.5C66.7,79.5,66.5,78.8,66.2,78.2L66.2,78.2z"/>
	<path d="M82.5,65.8c-0.3,5.4-2.5,8.1-2.5,8.1c-0.2,0.3-0.3,0.7-0.3,1.1c0,1.4,1.3,2.6,2.9,2.6c1.6,0,2.9-1.2,2.9-2.6
		c0-0.4-0.1-0.8-0.3-1.1C82.5,70.1,82.6,63.7,82.5,65.8z"/>
</g>
</svg>
