<?xml version="1.0" encoding="utf-8"?>
<!-- Generator: Adobe Illustrator 22.0.1, SVG Export Plug-In . SVG Version: 6.00 Build 0)  -->
<svg version="1.1" id="Layer_1" xmlns="http://www.w3.org/2000/svg" xmlns:xlink="http://www.w3.org/1999/xlink" x="0px" y="0px"
	 viewBox="0 0 150 100" style="enable-background:new 0 0 150 100;" xml:space="preserve">
<path d="M118.8,39.7c-0.2-4.9-3.7-9.1-8.6-10.6c0-0.4,0.1-0.8,0.1-1.2c0-7.7-6.3-14-14-14c-2.6,0-5.1,0.7-7.3,2.1
	C87.6,8.1,80.4,2.2,71.8,2.7c-8.1,0.4-14.5,6.3-15.6,14c-1.5-0.5-3-0.8-4.5-0.8c-7.7,0-14,6.3-14,13.9c0,0.2,0,0.3,0,0.5
	c-3.9,1.1-9.5,3.3-9.5,11.3c0,5.9,4.9,11,11.6,11.3l2.1-3.2c-0.2,0-0.5,0-0.7,0l-0.5,0c-5.1,0-9.2-3.7-9.2-8.2
	c0-5.4,2.9-7.1,8.4-8.5l1.2-0.5l0-1.2l-0.1-0.7c0-0.3-0.1-0.6-0.1-1c0-5.9,4.8-10.7,10.7-10.7c1.8,0,3.5,0.5,5.2,1.4l2.5,1.4
	L59.3,19C59.2,12,64.8,6.3,72,5.9l0.7,0c7.1,0,12.9,5.4,13.2,12.2c0,0.2,0,0.5,0,1.1l-0.1,4.2l2.9-3c2-2.1,4.7-3.2,7.6-3.2
	c5.9,0,10.7,4.8,10.7,10.7c0,0.7-0.1,1.5-0.2,2.1l-0.3,1.6l1.6,0.3c4.2,0.7,7.2,4,7.4,7.9c0.2,3.9-2.5,8.4-6.6,9.7l1.1,3
	C115.2,50.8,119.1,45.5,118.8,39.7"/>
<g>
	<path d="M50.6,86.6c0,0.4-0.4,0.7-1,0.7l0,0c-0.6,0-1-0.3-1-0.7v-39c0-0.4,0.4-0.7,1-0.7l0,0c0.6,0,1,0.3,1,0.7V86.6z"/>
</g>
<g>
	<path d="M59.8,92.6c0,0.4-0.4,0.7-1,0.7l0,0c-0.6,0-1-0.3-1-0.7v-39c0-0.4,0.4-0.7,1-0.7l0,0c0.5,0,1,0.3,1,0.7V92.6z"/>
</g>
<g>
	<path d="M73.6,84.1c0,0.4-0.4,0.7-1,0.7l0,0c-0.6,0-1-0.3-1-0.7v-39c0-0.4,0.4-0.7,1-0.7l0,0c0.5,0,1,0.3,1,0.7V84.1z"/>
</g>
<g>
	<path d="M84.5,96.3c0,0.4-0.4,0.7-1,0.7l0,0c-0.6,0-1-0.3-1-0.7v-39c0-0.4,0.4-0.7,1-0.7l0,0c0.5,0,1,0.3,1,0.7V96.3z"/>
</g>
<g>
	<path d="M94.9,84.1c0,0.4-0.5,0.7-1,0.7l0,0c-0.6,0-1-0.3-1-0.7v-39c0-0.4,0.4-0.7,1-0.7l0,0c0.5,0,1,0.3,1,0.7V84.1z"/>
</g>
</svg>
