<?xml version="1.0" encoding="utf-8"?>
<!-- Generator: Adobe Illustrator 22.0.1, SVG Export Plug-In . SVG Version: 6.00 Build 0)  -->
<svg version="1.1" id="Layer_1" xmlns="http://www.w3.org/2000/svg" xmlns:xlink="http://www.w3.org/1999/xlink" x="0px" y="0px"
	 viewBox="0 0 150 100" style="enable-background:new 0 0 150 100;" xml:space="preserve">
<path d="M73.9,2C64.6,2.5,57.2,9.1,56,17.7c-1.7-0.6-3.4-0.9-5.2-0.9c-8.9,0-16.1,7-16.1,15.6c0,0.2,0,0.4,0,0.6
	c-4.5,1.2-10.9,3.7-10.9,12.6c0,6.6,5.7,12.3,13.4,12.7l2.4-3.5c-0.3,0-0.6,0-0.8,0l-0.6,0c-5.9,0-10.6-4.1-10.6-9.2
	c0-6,3.4-8,9.6-9.5l1.4-0.5l0-1.4l-0.1-0.7c-0.1-0.4-0.1-0.7-0.1-1.1c0-6.6,5.5-12,12.3-12c2.1,0,4.1,0.5,6,1.6l2.8,1.5l-0.1-3.2
	c-0.1-7.9,6.3-14.3,14.6-14.7l0.8,0c8.2,0,14.9,6,15.2,13.7c0,0.3,0,0.5,0,1.2L90,25.3l3.4-3.3c2.3-2.3,5.5-3.6,8.8-3.6
	c6.8,0,12.3,5.4,12.3,12c0,0.8-0.1,1.6-0.3,2.4l-0.4,1.8l1.9,0.3c4.8,0.8,8.3,4.4,8.5,8.8c0.2,4.4-2.9,9.4-7.6,10.8l1.2,3.4
	c5.9-1.9,10.4-7.9,10.1-14.4c-0.3-5.5-4.2-10.2-9.9-11.8c0-0.5,0.1-0.9,0.1-1.4c0-8.6-7.2-15.6-16.1-15.6c-3,0-5.9,0.8-8.4,2.3
	C92.1,8.2,83.8,1.5,73.9,2"/>
<g>
	<path d="M45,65.6h1.1v-1H45V65.6z M49.2,67l0.8,0.7l0.8-0.7L50,66.3L49.2,67z M43.5,60l-0.8,0.8l0.8,0.7l0.8-0.7L43.5,60z
		 M53.9,65.6H55v-1h-1.1V65.6z M46,55.8H45v1H46V55.8z M55.1,55.8H54v1h1.1V55.8z M50.7,54.4L50,53.6l-0.8,0.7l0.8,0.7L50.7,54.4z
		 M56.1,62.3l-0.7-1.6l0.7-1.5l-1.3,1.3h-2.1l0.7-1.1l-1.3-0.2l1.5-1.4h1.8l-1.6-0.6l-0.6-1.6v1.8l-1.4,1.5l-0.2-1.4l-1.2,0.8v-2
		l1.3-1.3l-1.6,0.8l-1.6-0.7l1.3,1.3v2l-1.2-0.7l-0.2,1.3l-1.5-1.5v-1.8l-0.6,1.6l-1.7,0.6h1.8l1.5,1.4l-1.5,0.3l0.9,1h-2.1
		l-1.3-1.3l0.6,1.6l-0.6,1.6l1.3-1.3h2.1l-0.9,1.2l1.5,0.2l-1.5,1.4h-1.8l1.7,0.6l0.5,1.6l0-1.7l1.4-1.4l0.3,1.4l1.2-0.9v2l-1.3,1.2
		L50,66l1.6,0.7l-1.3-1.2v-2l1.2,0.8l0.2-1.4l1.5,1.4l0,1.7l0.5-1.5l1.7-0.6h-1.8l-1.5-1.4l1.4-0.4L52.7,61h2.1L56.1,62.3z
		 M48.4,59.7l0.9,0.8h-1.2L48.4,59.7z M48.5,61.9L48.1,61h1.2L48.5,61.9z M49.7,62.6l-0.8-0.3l0.8-0.9V62.6z M49.7,60.1l-0.8-0.8
		l0.8-0.3V60.1z M51.6,59.7l0.3,0.8h-1.2L51.6,59.7z M50.3,58.9l0.9,0.3l-0.9,0.8V58.9z M50.3,62.6v-1.2l0.9,0.8L50.3,62.6z
		 M51.5,61.9L50.7,61H52L51.5,61.9z M56.4,60l-0.8,0.7l0.8,0.7l0.8-0.7L56.4,60z"/>
</g>
<g>
	<path d="M88.4,60h1.4v-1.3h-1.4V60z M93.9,61.8l1,0.9l1-0.9l-1-1L93.9,61.8z M86.4,52.8l-1,1l1,0.9l1-0.9L86.4,52.8z M99.9,60h1.4
		v-1.3h-1.4V60z M89.7,47.3h-1.4v1.4h1.4V47.3z M101.4,47.3H100v1.4h1.4V47.3z M95.8,45.4l-1-1l-1,1l1,1L95.8,45.4z M102.7,55.8
		l-0.9-2.1l0.9-2l-1.6,1.7h-2.7l1-1.5l-1.7-0.3l1.9-1.9h2.3L99.7,49l-0.8-2.1v2.3l-1.9,1.9l-0.3-1.8l-1.5,1v-2.5l1.7-1.7l-2,1
		l-2.1-0.9l1.7,1.6v2.5L93,49.4l-0.3,1.7l-1.9-1.9v-2.3L90.1,49l-2.2,0.8h2.4l1.9,1.8L90.2,52l1.2,1.4h-2.7L87,51.7l0.8,2l-0.8,2
		l1.7-1.7h2.7l-1.2,1.5l1.9,0.3l-1.9,1.8h-2.4l2.2,0.7l0.7,2.1l0-2.3l1.8-1.8l0.3,1.8l1.6-1.1v2.6l-1.7,1.6l2-0.9l2,0.9l-1.6-1.6
		v-2.6l1.5,1l0.3-1.8l1.9,1.8l0,2.3l0.7-2l2.2-0.8h-2.3l-1.9-1.8l1.8-0.5L98.4,54h2.7L102.7,55.8z M92.8,52.3l1.1,1h-1.5L92.8,52.3z
		 M92.9,55.2L92.4,54H94L92.9,55.2z M94.5,56.1l-1-0.4l1-1.1V56.1z M94.5,52.8l-1-1l1-0.4V52.8z M96.9,52.3l0.4,1h-1.5L96.9,52.3z
		 M95.3,51.3l1.1,0.4l-1.1,1V51.3z M95.3,56.1v-1.6l1.1,1L95.3,56.1z M96.8,55.2L95.8,54h1.6L96.8,55.2z M103.2,52.7l-1,1l1,1l1-1
		L103.2,52.7z"/>
</g>
<g>
	<path d="M54.8,95.2h1.4v-1.4h-1.4V95.2z M60.2,97l1,1l1-1l-1-1L60.2,97z M52.8,88l-1,1l1,0.9l1-0.9L52.8,88z M66.3,95.2h1.4v-1.4
		h-1.4V95.2z M56.1,82.5h-1.4v1.4h1.4V82.5z M67.8,82.5h-1.4v1.4h1.4V82.5z M62.2,80.7l-1-1l-1,1l1,1L62.2,80.7z M69.1,91l-0.9-2.1
		l0.9-2l-1.6,1.7h-2.7l1-1.5L64,86.8l1.9-1.9h2.3l-2.1-0.8l-0.8-2.1v2.3l-1.9,1.9l-0.3-1.8l-1.5,1V83l1.7-1.7l-2,1l-2.1-0.9l1.7,1.6
		v2.5l-1.6-0.9l-0.3,1.7l-1.9-1.9v-2.3l-0.7,2.1L54.2,85h2.4l1.9,1.8l-1.9,0.4l1.2,1.4h-2.7l-1.7-1.7l0.8,2l-0.8,2l1.7-1.7h2.7
		l-1.2,1.5l1.9,0.3l-1.9,1.8h-2.4l2.2,0.7l0.7,2.1l0-2.3l1.8-1.8l0.3,1.8l1.6-1.1V95l-1.7,1.6l2.1-0.9l2,0.9L61.6,95v-2.6l1.5,1
		l0.3-1.8l1.9,1.8l0,2.3l0.7-2l2.2-0.8h-2.3L64,91.1l1.8-0.5l-1.1-1.4h2.7L69.1,91z M59.2,87.5l1.1,1h-1.5L59.2,87.5z M59.3,90.4
		l-0.5-1.1h1.5L59.3,90.4z M60.9,91.3l-1-0.4l1-1.1V91.3z M60.9,88l-1-1l1-0.4V88z M63.3,87.5l0.4,1h-1.5L63.3,87.5z M61.7,86.5
		l1.1,0.4l-1.1,1V86.5z M61.7,91.3v-1.6l1.1,1L61.7,91.3z M63.2,90.4l-1.1-1.1h1.6L63.2,90.4z M69.6,87.9l-1,1l1,1l1-1L69.6,87.9z"
		/>
</g>
<g>
	<path d="M76.9,77.8h1v-0.9h-1V77.8z M80.7,79l0.7,0.7l0.7-0.7l-0.7-0.7L80.7,79z M75.5,72.7l-0.7,0.7l0.7,0.7l0.7-0.7L75.5,72.7z
		 M84.9,77.8h1v-0.9h-1V77.8z M77.8,69h-1v0.9h1V69z M85.9,69h-1v0.9h1V69z M82,67.7L81.3,67l-0.7,0.7l0.7,0.7L82,67.7z M86.8,74.8
		l-0.6-1.5l0.6-1.4l-1.1,1.2h-1.9l0.7-1l-1.2-0.2l1.3-1.3h1.6l-1.5-0.5l-0.6-1.4v1.6l-1.3,1.3l-0.2-1.2L81.7,71v-1.8l1.2-1.2
		l-1.4,0.7L80,68.1l1.2,1.1V71L80,70.4l-0.2,1.2l-1.3-1.3v-1.6L78,70.1l-1.5,0.6h1.6l1.3,1.3l-1.3,0.3l0.8,0.9h-1.9L75.9,72l0.6,1.4
		l-0.6,1.4l1.2-1.2h1.9l-0.8,1l1.3,0.2l-1.3,1.3h-1.6l1.5,0.5l0.5,1.4l0-1.6l1.3-1.2l0.2,1.3l1.1-0.8v1.8L80,78.7l1.4-0.6l1.4,0.6
		l-1.1-1.1v-1.8l1.1,0.7l0.2-1.2l1.3,1.3l0,1.6l0.5-1.4l1.5-0.6h-1.6l-1.3-1.2l1.3-0.4l-0.7-0.9h1.9L86.8,74.8z M80,72.4l0.8,0.7
		h-1.1L80,72.4z M80,74.4l-0.3-0.8h1.1L80,74.4z M81.1,75l-0.7-0.3l0.7-0.8V75z M81.1,72.8l-0.7-0.7l0.7-0.3V72.8z M82.8,72.4
		l0.3,0.7H82L82.8,72.4z M81.7,71.7l0.8,0.3l-0.8,0.7V71.7z M81.7,75.1V74l0.8,0.7L81.7,75.1z M82.7,74.4L82,73.6h1.1L82.7,74.4z
		 M87.1,72.7l-0.7,0.7l0.7,0.7l0.7-0.7L87.1,72.7z"/>
</g>
<g>
	<path d="M67.3,59.3H68v-0.7h-0.7V59.3z M70,60.2l0.5,0.5l0.5-0.5l-0.5-0.5L70,60.2z M66.3,55.8l-0.5,0.5l0.5,0.5l0.5-0.5L66.3,55.8
		z M72.9,59.3h0.7v-0.7h-0.7V59.3z M67.9,53.1h-0.7v0.7h0.7V53.1z M73.7,53.1H73v0.7h0.7V53.1z M70.9,52.2l-0.5-0.5l-0.5,0.5
		l0.5,0.5L70.9,52.2z M74.3,57.3l-0.4-1l0.4-1l-0.8,0.8h-1.3l0.5-0.7l-0.8-0.2l0.9-0.9h1.1l-1-0.4l-0.4-1V54L71.5,55l-0.1-0.9
		l-0.8,0.5v-1.2l0.8-0.8l-1,0.5l-1-0.4l0.8,0.8v1.2l-0.8-0.4L69.4,55L68.5,54v-1.1l-0.4,1L67,54.3h1.2l0.9,0.9l-0.9,0.2l0.6,0.7
		h-1.3l-0.8-0.8l0.4,1l-0.4,1l0.8-0.8h1.3l-0.6,0.7l0.9,0.1l-0.9,0.9H67l1.1,0.4l0.3,1l0-1.1l0.9-0.9l0.2,0.9l0.8-0.6v1.3L69.5,60
		l1-0.4l1,0.4l-0.8-0.8v-1.3l0.8,0.5l0.1-0.9l0.9,0.9l0,1.1l0.3-1l1.1-0.4h-1.1l-0.9-0.9l0.9-0.3l-0.5-0.7h1.3L74.3,57.3z
		 M69.5,55.6l0.6,0.5h-0.8L69.5,55.6z M69.5,57l-0.2-0.6H70L69.5,57z M70.3,57.4l-0.5-0.2l0.5-0.5V57.4z M70.3,55.8l-0.5-0.5
		l0.5-0.2V55.8z M71.4,55.6l0.2,0.5h-0.8L71.4,55.6z M70.7,55.1l0.5,0.2l-0.5,0.5V55.1z M70.7,57.4v-0.8l0.5,0.5L70.7,57.4z
		 M71.4,57l-0.5-0.6h0.8L71.4,57z M74.5,55.8L74,56.2l0.5,0.5l0.5-0.5L74.5,55.8z"/>
</g>
<g>
	<path d="M96.5,79.1h0.8v-0.8h-0.8V79.1z M99.5,80.1l0.6,0.5l0.6-0.5l-0.6-0.5L99.5,80.1z M95.4,75l-0.5,0.5l0.6,0.5l0.6-0.5
		L95.4,75z M102.9,79.1h0.8v-0.8h-0.8V79.1z M97.2,72h-0.8v0.8h0.8V72z M103.7,72H103v0.8h0.8V72z M100.6,70.9l-0.6-0.5l-0.6,0.5
		l0.6,0.5L100.6,70.9z M104.5,76.7l-0.5-1.2l0.5-1.1l-0.9,0.9H102l0.5-0.8l-1-0.2l1.1-1h1.3l-1.2-0.4l-0.5-1.2V73l-1,1.1l-0.2-1
		l-0.9,0.6v-1.4l0.9-1l-1.1,0.6l-1.2-0.5l0.9,0.9v1.4L99,73.1L98.9,74L97.8,73v-1.3l-0.4,1.2l-1.2,0.5h1.3l1.1,1l-1.1,0.2l0.7,0.8
		h-1.5l-0.9-0.9l0.5,1.1l-0.5,1.1l0.9-1h1.5l-0.7,0.8l1.1,0.2l-1.1,1h-1.3l1.2,0.4l0.4,1.1l0-1.3l1-1l0.2,1l0.9-0.6v1.5l-0.9,0.9
		l1.1-0.5l1.1,0.5l-0.9-0.9v-1.5l0.9,0.6l0.2-1l1.1,1l0,1.3l0.4-1.1l1.2-0.4h-1.3l-1.1-1l1-0.3l-0.6-0.8h1.5L104.5,76.7z M98.9,74.7
		l0.6,0.6h-0.9L98.9,74.7z M99,76.3l-0.3-0.6h0.9L99,76.3z M99.9,76.9l-0.6-0.2l0.6-0.6V76.9z M99.9,75l-0.6-0.6l0.6-0.2V75z
		 M101.2,74.7l0.2,0.6h-0.9L101.2,74.7z M100.3,74.2l0.6,0.2l-0.6,0.6V74.2z M100.3,76.9V76l0.6,0.6L100.3,76.9z M101.2,76.3
		l-0.6-0.6h0.9L101.2,76.3z M104.7,75l-0.6,0.5l0.6,0.5l0.6-0.5L104.7,75z"/>
</g>
</svg>
