<?xml version="1.0" encoding="utf-8"?>
<!-- Generator: Adobe Illustrator 22.0.1, SVG Export Plug-In . SVG Version: 6.00 Build 0)  -->
<svg version="1.1" id="Layer_1" xmlns="http://www.w3.org/2000/svg" xmlns:xlink="http://www.w3.org/1999/xlink" x="0px" y="0px"
	 viewBox="0 0 100 100" style="enable-background:new 0 0 100 100;" xml:space="preserve">
<g>
	<path d="M50.4,74.9C37.5,74.9,27,64.3,27,51.4c0-12.9,10.5-23.5,23.5-23.5c12.9,0,23.5,10.5,23.5,23.5
		C73.9,64.3,63.4,74.9,50.4,74.9z M50.4,32c-10.7,0-19.4,8.7-19.4,19.4c0,10.7,8.7,19.4,19.4,19.4c10.7,0,19.4-8.7,19.4-19.4
		C69.8,40.7,61.1,32,50.4,32z"/>
	<g>
		<path d="M32.2,31c0.6,0.7,0.5,1.7-0.1,2.3l0,0c-0.7,0.6-1.7,0.5-2.3-0.2L17.6,19.3c-0.6-0.7-0.5-1.7,0.2-2.3l0,0
			c0.7-0.6,1.7-0.5,2.3,0.2L32.2,31z"/>
	</g>
	<g>
		<path d="M52.1,23.5c0,0.9-0.7,1.6-1.6,1.6l0,0c-0.9,0-1.6-0.7-1.6-1.6L48.7,5.1c0-0.9,0.7-1.6,1.6-1.6l0,0c0.9,0,1.6,0.7,1.6,1.6
			L52.1,23.5z"/>
	</g>
	<g>
		<path d="M22.6,46.9c0.9,0.1,1.6,0.9,1.5,1.8l0,0c-0.1,0.9-0.9,1.6-1.8,1.5L4,48.7c-0.9-0.1-1.6-0.9-1.5-1.8l0,0
			c0.1-0.9,0.9-1.6,1.8-1.5L22.6,46.9z"/>
	</g>
	<g>
		<path d="M25.5,64.4c0.8-0.5,1.8-0.3,2.2,0.5l0,0c0.5,0.8,0.3,1.8-0.5,2.3L11.7,77c-0.8,0.5-1.8,0.3-2.2-0.5l0,0
			C9,75.7,9.2,74.7,10,74.2L25.5,64.4z"/>
	</g>
	<g>
		<path d="M39.4,76.5c0.3-0.8,1.3-1.3,2.1-1l0,0c0.8,0.3,1.3,1.3,1,2.1L36,94.9c-0.3,0.8-1.3,1.3-2.1,0.9l0,0
			c-0.9-0.3-1.3-1.3-1-2.1L39.4,76.5z"/>
	</g>
	<g>
		<path d="M74.6,67.8c-0.8-0.4-1.1-1.4-0.7-2.2l0,0c0.4-0.8,1.4-1.1,2.2-0.7l16.3,8.6c0.8,0.4,1.1,1.4,0.7,2.2l0,0
			c-0.4,0.8-1.4,1.1-2.2,0.7L74.6,67.8z"/>
	</g>
	<g>
		<path d="M78.3,47.9c-0.9,0.1-1.7-0.5-1.8-1.4l0,0c-0.1-0.9,0.5-1.7,1.4-1.8l18.3-2.1c0.9-0.1,1.7,0.5,1.8,1.4l0,0
			c0.1,0.9-0.5,1.7-1.4,1.8L78.3,47.9z"/>
	</g>
	<g>
		<path d="M66.3,93.8c0.3,0.8-0.1,1.8-1,2.1l0,0c-0.9,0.3-1.8-0.1-2.1-1l-6.1-17.4c-0.3-0.8,0.1-1.8,1-2.1l0,0
			c0.8-0.3,1.8,0.1,2.1,1L66.3,93.8z"/>
	</g>
	<g>
		<path d="M69.3,31.4c-0.6,0.7-1.6,0.8-2.3,0.3l0,0c-0.7-0.6-0.8-1.6-0.3-2.3l11.3-14.5c0.6-0.7,1.6-0.8,2.3-0.3l0,0
			c0.7,0.6,0.8,1.6,0.3,2.3L69.3,31.4z"/>
	</g>
</g>
</svg>
